<?xml version="1.0" encoding="utf-8"?>
<!-- Generator: Adobe Illustrator 21.0.2, SVG Export Plug-In . SVG Version: 6.00 Build 0)  -->
<svg version="1.1" id="Capa_1" xmlns="http://www.w3.org/2000/svg" xmlns:xlink="http://www.w3.org/1999/xlink" x="0px" y="0px"
	 viewBox="0 0 45 45" style="enable-background:new 0 0 45 45;" xml:space="preserve">
<style type="text/css">
	.st0{fill:#00A19A;}
	.st1{fill:#49B29C;}
	.st2{fill:url(#SVGID_1_);}
	.st3{opacity:0.81;fill:#00A19A;}
	.st4{fill:#FFFFFF;}
</style>
<g>
	<circle class="st0" cx="22.6" cy="22.5" r="20.6"/>
	<circle class="st1" cx="22.4" cy="22.5" r="19.3"/>
	
		<linearGradient id="SVGID_1_" gradientUnits="userSpaceOnUse" x1="34.5682" y1="151.412" x2="54.1411" y2="151.412" gradientTransform="matrix(0.6687 -0.7435 0.7435 0.6687 -126.3082 -38.6363)">
		<stop  offset="0" style="stop-color:#00A19A;stop-opacity:0.7"/>
		<stop  offset="1" style="stop-color:#47B29C"/>
	</linearGradient>
	<path class="st2" d="M36.8,35.3c-7.2,8-19.5,8.8-27.5,1.6S0.9,17.5,8.1,9.4"/>
	<path class="st3" d="M21.6,37.9c-0.6-1.2-1.3-2.3-1.8-3.5c-0.5-1-0.8-2.2-1.1-3.3c-0.1-0.4,0.2-1,0.3-1.5c0.5,0.3,1.3,0.4,1.4,0.8
		c0.7,1.6,1.2,3.2,1.7,4.9c0.1,0.3,0.3,0.6,0.4,0.9c0.2,0.4,0.8,0.4,1,0c3.1-7.4,6.1-14.8,9.2-22.1c0.2-0.6-0.4-1.2-1-1
		c-7.3,3-14.7,6-22,9.1c-0.6,0.2-0.5,1.1,0,1.3c2.2,0.7,4.4,1.5,6.6,2.1c0.5,0.1,1.3-0.6,1.8-1c2.3-1.9,4.6-3.9,6.9-5.8
		c0.5-0.4,1.4-0.4,2.2-0.6c-0.3,0.6-0.4,1.5-0.9,1.9c-2.5,2.3-5.2,4.4-7.7,6.6c-1.2,1.1-2.3,1.2-3.7,0.6c-1.9-0.8-4-1.3-5.8-2.2
		c-0.8-0.3-1.8-1.2-1.9-1.9c-0.1-0.8,0.1-1.7,0.7-2.4c0.3-0.5,1.5-0.8,2.1-1c6.9-2.9,13.8-5.7,20.7-8.6c0.4-0.2,0.8-0.3,1.3-0.2
		c1.5,0,2.2,0.5,2.5,1.7c0.2,0.9,0.1,1.8-0.3,2.6c-0.3,0.6-0.5,1.1-0.8,1.7C30.7,24,27.9,30.9,25,37.8
		C24.4,39.2,22.4,39.3,21.6,37.9z"/>
	<path class="st4" d="M21.2,37.3c-0.6-1.2-1.3-2.3-1.8-3.5c-0.5-1-0.8-2.2-1.1-3.3c-0.1-0.4,0.2-1,0.3-1.5c0.5,0.3,1.3,0.4,1.4,0.8
		c0.7,1.6,1.2,3.2,1.7,4.9c0.1,0.3,0.3,0.6,0.4,0.9c0.2,0.4,0.8,0.4,1,0c3.1-7.4,6.1-14.8,9.2-22.1c0.2-0.6-0.4-1.2-1-1
		c-7.3,3-14.7,6-22,9.1c-0.6,0.2-0.5,1.1,0,1.3c2.2,0.7,4.4,1.5,6.6,2.1c0.5,0.1,1.3-0.6,1.8-1c2.3-1.9,4.6-3.9,6.9-5.8
		c0.5-0.4,1.4-0.4,2.2-0.6c-0.3,0.6-0.4,1.5-0.9,1.9c-2.5,2.3-5.2,4.4-7.7,6.6c-1.2,1.1-2.3,1.2-3.7,0.6c-1.9-0.8-4-1.3-5.8-2.2
		c-0.8-0.3-1.8-1.2-1.9-1.9c-0.1-0.8,0.1-1.7,0.7-2.4c0.3-0.5,1.5-0.8,2.1-1c6.9-2.9,13.8-5.7,20.7-8.6c0.4-0.2,0.8-0.3,1.3-0.2
		c1.5,0,2.2,0.5,2.5,1.7c0.2,0.9,0.1,1.8-0.3,2.6c-0.3,0.6-0.5,1.1-0.8,1.7c-2.9,6.9-5.8,13.8-8.7,20.7C23.9,38.6,22,38.7,21.2,37.3
		z"/>
	<g>
		<path class="st0" d="M10.4,13.3l-0.2,0.1c0-0.1-0.1-0.2-0.1-0.3c-0.1-0.3-0.3-0.4-0.5-0.5c-0.2-0.1-0.4-0.1-0.6,0
			c-0.3,0.1-0.5,0.3-0.7,0.6C8.2,13.6,8,14,8,14.4c0,0.4,0,0.8,0.2,1.2c0.2,0.4,0.4,0.6,0.6,0.7c0.3,0.1,0.5,0.1,0.7,0
			c0.1-0.1,0.3-0.1,0.4-0.2c0.1-0.1,0.2-0.2,0.3-0.3c0-0.4-0.1-0.6-0.1-0.7c0-0.1-0.1-0.1-0.1-0.1c0,0-0.1,0-0.2,0
			c0,0-0.1,0.1-0.2,0.1l0-0.2c0.1-0.1,0.2-0.1,0.3-0.1c0.1,0,0.2-0.1,0.3-0.1c0.1,0,0.1-0.1,0.2-0.1c0.1,0,0.2-0.1,0.3-0.2
			c0.1,0,0.1-0.1,0.2-0.1l0,0.2c-0.1,0-0.2,0.1-0.2,0.2c0,0.1,0,0.2,0,0.4c0.1,0.8,0.2,1.3,0.1,1.7s-0.1,0.7-0.3,0.9
			c-0.1,0.2-0.3,0.4-0.6,0.5c-0.2,0.1-0.4,0.1-0.5,0.1c-0.2,0-0.3-0.1-0.3-0.2c0-0.1,0-0.1,0-0.2s0.1-0.1,0.1-0.1c0.1,0,0.2,0,0.3,0
			C9.5,17.9,9.6,18,9.7,18c0.1,0,0.1,0,0.2,0c0.1-0.1,0.2-0.1,0.3-0.3c0.1-0.3,0.1-0.8,0-1.6c-0.1,0.1-0.2,0.2-0.3,0.3
			c-0.1,0.1-0.3,0.2-0.4,0.2c-0.4,0.1-0.7,0.2-0.9,0.1c-0.4-0.1-0.7-0.4-0.8-0.9c-0.2-0.4-0.2-0.8-0.2-1.3c0.1-0.4,0.2-0.9,0.5-1.2
			c0.3-0.4,0.6-0.6,0.9-0.8c0.2-0.1,0.4-0.1,0.7-0.2c0.3,0,0.5-0.1,0.6-0.1C10.2,12.7,10.3,13,10.4,13.3z"/>
		<path class="st0" d="M11.2,14.2l1.4-0.6l0.1,0.3l-1.4,0.6L11.2,14.2z"/>
		<path class="st0" d="M15.8,13.7l0,0.2c-0.1,0.1-0.2,0.1-0.3,0.2c-0.1,0-0.2,0.1-0.4,0.1c-0.2,0-0.3,0.1-0.4,0.1
			c-0.2,0.1-0.4,0.2-0.6,0.3l0-0.2c0.2-0.1,0.3-0.2,0.4-0.3c0-0.1,0.1-0.2,0.1-0.3c0-0.1-0.1-0.6-0.2-1.3l-0.3-1.7l0-0.1
			c-0.1,0-0.2,0.1-0.3,0.1c-0.4,0.2-0.6,0.3-0.8,0.5c-0.2,0.2-0.3,0.4-0.3,0.6c0,0.2,0,0.4,0,0.6c0,0.1,0.1,0.1,0.1,0.2
			c0,0,0.1,0.1,0.2,0.1c0.1,0,0.2,0.1,0.2,0.2c0,0.1,0,0.1,0,0.2c0,0.1-0.1,0.1-0.1,0.1c-0.1,0-0.2,0-0.3,0
			c-0.1-0.1-0.2-0.2-0.3-0.4c-0.1-0.2-0.1-0.5-0.1-0.8c0.1-0.3,0.2-0.6,0.4-0.8c0.2-0.2,0.5-0.4,0.9-0.6c0.2-0.1,0.5-0.2,0.9-0.3
			c0.3-0.1,0.5-0.1,0.6-0.2c0.1-0.1,0.2-0.1,0.2-0.2c0-0.1,0-0.1,0-0.2c0,0,0,0,0-0.1c0,0,0-0.1,0-0.1c0-0.1,0-0.1,0-0.2
			c0-0.1,0.1-0.1,0.1-0.1c0.1,0,0.1,0,0.2,0c0.1,0,0.1,0.1,0.1,0.2c0.1,0.2,0,0.3-0.1,0.5c-0.1,0.2-0.4,0.3-0.7,0.5
			c-0.1,0.1-0.3,0.1-0.4,0.2c0,0.1,0,0.4,0.1,0.8l0.2,1.1l0.1,0.7l0.1,0.8c0.1,0,0.3-0.1,0.3-0.1C15.5,13.9,15.7,13.8,15.8,13.7z"/>
		<path class="st0" d="M17,13.4l-0.4,0.2l-0.1-0.9c-0.1-0.4-0.1-0.9-0.2-1.2c0-0.1,0-0.2,0-0.2c0,0-0.1-0.1-0.1,0
			c0,0-0.1,0.1-0.1,0.1c0,0.1-0.1,0.2-0.2,0.4l-0.1-0.1c0.1-0.3,0.2-0.5,0.4-0.7c0.1-0.2,0.3-0.3,0.4-0.3c0,0,0.1,0,0.1,0
			c0,0,0,0,0.1,0.1c0,0,0,0.1,0,0.2l0.1,0.6c0.1-0.4,0.2-0.8,0.3-1.1c0.1-0.2,0.2-0.3,0.2-0.3c0.1,0,0.1,0,0.2,0
			c0.1,0,0.1,0.1,0.1,0.1c0,0.1,0,0.1,0,0.2c0,0.1-0.1,0.1-0.2,0.3c-0.1,0.1-0.2,0.2-0.3,0.3c-0.1,0.1-0.1,0.3-0.2,0.4
			c-0.1,0.2-0.1,0.3-0.1,0.5c0,0.1,0,0.4,0.1,0.8L17,13.4z"/>
		<path class="st0" d="M19.3,9.4l0.2-0.1l0.1,0.9c0,0.3,0.1,0.7,0.2,1.1c0,0.2,0.1,0.4,0.1,0.4c0,0.1,0.1,0.1,0.1,0.1
			c0,0,0.1-0.1,0.1-0.1c0.1-0.1,0.2-0.3,0.2-0.4l0.1,0.1c-0.1,0.3-0.2,0.5-0.3,0.6c-0.1,0.1-0.2,0.3-0.3,0.3
			c-0.1,0.1-0.1,0.1-0.2,0.1c-0.1,0-0.1,0-0.1,0c0,0-0.1,0-0.1-0.1c0,0,0-0.1,0-0.1l0-0.5c-0.1,0.3-0.2,0.5-0.4,0.8
			c-0.1,0.2-0.2,0.3-0.3,0.3c-0.1,0-0.2,0-0.3,0c-0.1-0.1-0.2-0.2-0.3-0.4c-0.1-0.2-0.1-0.5-0.1-0.8c0-0.3,0.1-0.6,0.2-0.9
			c0.1-0.3,0.2-0.5,0.4-0.7c0.1-0.1,0.3-0.3,0.6-0.4c0.1,0,0.1-0.1,0.2-0.1L19.3,9.4z M19.1,10c-0.1,0-0.2,0-0.3,0.1
			c-0.2,0.1-0.3,0.2-0.4,0.3c-0.1,0.2-0.1,0.4-0.2,0.7c0,0.3,0,0.6,0.1,0.8c0.1,0.1,0.1,0.2,0.2,0.3c0.1,0,0.1,0,0.2,0
			c0.1-0.1,0.3-0.2,0.4-0.4c0.1-0.2,0.1-0.5,0.1-0.8L19.1,10z"/>
		<path class="st0" d="M21.4,9c-0.1,0.3-0.1,0.6,0,0.8c0,0.2,0.1,0.4,0.1,0.6c0.1,0.2,0.2,0.4,0.4,0.8c0.3-0.5,0.5-1,0.5-1.3
			c0.1-0.4,0-0.7,0-0.9c0-0.1-0.1-0.1-0.2-0.2c-0.1-0.1-0.1-0.1-0.2-0.2c0-0.1,0-0.1,0-0.2c0-0.1,0.1-0.1,0.1-0.1c0.1,0,0.1,0,0.2,0
			c0.1,0,0.1,0.1,0.2,0.3c0.2,0.4,0.2,0.9,0.1,1.4c-0.2,0.6-0.5,1.2-0.9,1.7c-0.1-0.1-0.1-0.2-0.3-0.4c-0.3-0.4-0.4-0.7-0.5-0.8
			c-0.1-0.2-0.1-0.4-0.1-0.7c0-0.2,0.1-0.5,0.2-0.7c-0.3,0.2-0.6,0.3-0.7,0.4c-0.1,0.1-0.1,0.2-0.1,0.3c0,0,0,0.1,0.1,0.1
			c0,0,0.1,0.1,0.1,0.1c0,0,0,0.1,0,0.1c0,0,0,0.1-0.1,0.1c-0.1,0-0.1,0-0.2,0c-0.1,0-0.1-0.1-0.1-0.2c0-0.1-0.1-0.2,0-0.4
			c0-0.1,0.1-0.3,0.3-0.4c0.2-0.1,0.4-0.3,0.7-0.4c0.1-0.1,0.2-0.2,0.2-0.2c0,0,0.1,0,0.1,0c0,0,0.1,0,0.1,0.1
			C21.5,8.8,21.5,8.9,21.4,9z"/>
		<path class="st0" d="M24.9,9.2L25,9.3c-0.3,0.7-0.6,1.1-1,1.2c-0.1,0.1-0.3,0.1-0.4,0c-0.1-0.1-0.2-0.2-0.3-0.4
			c-0.2-0.4-0.2-0.9-0.1-1.4c0.1-0.6,0.3-1,0.7-1.2c0.1-0.1,0.3-0.1,0.4,0c0.1,0,0.2,0.1,0.2,0.2c0.1,0.1,0.1,0.3,0,0.4
			c0,0.2-0.1,0.4-0.3,0.6c-0.1,0.1-0.3,0.3-0.6,0.7c0,0.1,0.1,0.2,0.1,0.3C23.8,9.9,23.9,10,24,10c0.1,0,0.1,0,0.2,0
			c0.1,0,0.2-0.1,0.2-0.2C24.6,9.7,24.7,9.5,24.9,9.2z M23.6,9.2c0.3-0.3,0.4-0.5,0.5-0.8c0.1-0.2,0.1-0.3,0-0.4
			c0-0.1-0.1-0.1-0.2-0.2c-0.1,0-0.1,0-0.2,0c-0.1,0-0.1,0.1-0.2,0.2c-0.1,0.1-0.1,0.3-0.1,0.4C23.6,8.7,23.6,9,23.6,9.2z"/>
		<path class="st0" d="M26.6,8.5l0.1,0.1c-0.1,0.2-0.2,0.5-0.4,0.7S26.1,9.7,26,9.7c-0.1,0-0.1,0-0.2,0c-0.1,0-0.1-0.1-0.1-0.2
			c-0.1-0.2-0.1-0.5-0.2-1.1L25.2,7c-0.1-0.5-0.1-0.9-0.1-1.1c0-0.3,0.1-0.6,0.3-0.8C25.6,5,25.8,4.8,26,4.7c0.1,0,0.2,0,0.2,0
			c0.1,0,0.1,0.1,0.1,0.1c0,0.1,0,0.1,0,0.2c0,0.1-0.1,0.1-0.2,0.1c-0.1,0-0.1,0.1-0.3,0.1c-0.1,0-0.2,0.1-0.3,0.1
			c-0.1,0-0.1,0.1-0.2,0.1c0,0.1,0,0.2,0,0.4c0,0.2,0.1,0.5,0.1,1l0.2,1.4C26,8.8,26,9.2,26,9.2c0,0.1,0.1,0.1,0.1,0.1
			c0,0,0.1-0.1,0.2-0.2C26.4,9,26.5,8.8,26.6,8.5z"/>
		<path class="st0" d="M27.4,6.1C27.6,6,27.8,6,27.9,6c0.1,0,0.2,0.1,0.2,0.2c0,0.1,0,0.1,0,0.2c0,0.1-0.1,0.1-0.1,0.1
			c0,0-0.1,0-0.1,0c0,0-0.1,0-0.2-0.1c-0.2-0.1-0.3-0.1-0.4-0.1c-0.1,0-0.1,0.1-0.2,0.2c0,0.1,0,0.2,0,0.3c0,0.1,0.1,0.2,0.2,0.2
			c0.1,0.1,0.2,0.1,0.5,0.2c0.3,0.1,0.5,0.3,0.6,0.5c0.1,0.2,0.1,0.4,0,0.7c-0.1,0.2-0.3,0.4-0.6,0.5c-0.2,0.1-0.4,0.1-0.6,0.1
			c-0.2,0-0.3-0.1-0.3-0.3c0-0.1,0-0.1,0-0.2s0.1-0.1,0.1-0.1c0.1,0,0.1,0,0.2,0c0.1,0,0.1,0.1,0.1,0.1c0,0,0,0,0,0.1c0,0,0,0,0,0.1
			c0,0.1,0.1,0.1,0.2,0.1c0.1,0,0.2,0,0.2,0c0.1,0,0.2-0.1,0.3-0.2c0.1-0.1,0.1-0.2,0.1-0.2c0-0.1,0-0.2,0-0.3C28.1,8.1,28,8,27.9,8
			c-0.1-0.1-0.2-0.1-0.4-0.2c-0.3-0.1-0.5-0.3-0.6-0.5c-0.1-0.2-0.1-0.4,0-0.6C27,6.4,27.2,6.2,27.4,6.1z"/>
	</g>
	<g>
		<path class="st4" d="M10.2,13.2l-0.2,0.1c0-0.1-0.1-0.2-0.1-0.3c-0.1-0.3-0.3-0.4-0.5-0.5c-0.2-0.1-0.4-0.1-0.6,0
			c-0.3,0.1-0.5,0.3-0.7,0.6c-0.2,0.3-0.3,0.7-0.4,1.1c0,0.4,0,0.8,0.2,1.2c0.2,0.4,0.4,0.6,0.6,0.7c0.3,0.1,0.5,0.1,0.7,0
			c0.1-0.1,0.3-0.1,0.4-0.2c0.1-0.1,0.2-0.2,0.3-0.3c0-0.4-0.1-0.6-0.1-0.7c0-0.1-0.1-0.1-0.1-0.1c0,0-0.1,0-0.2,0
			c0,0-0.1,0.1-0.2,0.1l0-0.2c0.1-0.1,0.2-0.1,0.3-0.1c0.1,0,0.2-0.1,0.3-0.1c0.1,0,0.1-0.1,0.2-0.1c0.1,0,0.2-0.1,0.3-0.2
			c0.1,0,0.1-0.1,0.2-0.1l0,0.2c-0.1,0-0.2,0.1-0.2,0.2s0,0.2,0,0.4c0.1,0.7,0.2,1.3,0.1,1.7c0,0.4-0.1,0.7-0.3,0.9
			c-0.1,0.2-0.3,0.4-0.6,0.5c-0.2,0.1-0.4,0.1-0.5,0.1c-0.2,0-0.3-0.1-0.3-0.2c0-0.1,0-0.1,0-0.2c0-0.1,0.1-0.1,0.1-0.1
			c0.1,0,0.2,0,0.3,0c0.1,0.1,0.2,0.1,0.3,0.1c0.1,0,0.1,0,0.2,0c0.1-0.1,0.2-0.1,0.3-0.3c0.1-0.3,0.1-0.8,0-1.6
			c-0.1,0.1-0.2,0.2-0.3,0.3c-0.1,0.1-0.3,0.2-0.4,0.2c-0.4,0.1-0.7,0.2-0.9,0.1c-0.4-0.1-0.7-0.4-0.8-0.9c-0.2-0.4-0.2-0.8-0.2-1.3
			c0.1-0.4,0.2-0.9,0.5-1.2c0.3-0.4,0.6-0.6,0.9-0.8c0.2-0.1,0.4-0.1,0.7-0.2c0.3,0,0.5-0.1,0.6-0.1C10,12.5,10.1,12.9,10.2,13.2z"
			/>
		<path class="st4" d="M11,14.1l1.4-0.6l0.1,0.3l-1.4,0.6L11,14.1z"/>
		<path class="st4" d="M15.6,13.6l0,0.2c-0.1,0.1-0.2,0.1-0.3,0.2c-0.1,0-0.2,0.1-0.4,0.1c-0.2,0-0.3,0.1-0.4,0.1
			c-0.2,0.1-0.4,0.2-0.6,0.3l0-0.2c0.2-0.1,0.3-0.2,0.4-0.3c0-0.1,0.1-0.2,0.1-0.3c0-0.1-0.1-0.6-0.2-1.3l-0.3-1.7l0-0.1
			c-0.1,0-0.2,0.1-0.3,0.1c-0.4,0.2-0.6,0.3-0.8,0.5c-0.2,0.2-0.3,0.4-0.3,0.6c0,0.2,0,0.4,0,0.6c0,0.1,0.1,0.1,0.1,0.2
			c0,0,0.1,0.1,0.2,0.1c0.1,0,0.2,0.1,0.2,0.2c0,0.1,0,0.1,0,0.2c0,0.1-0.1,0.1-0.1,0.1c-0.1,0-0.2,0-0.3,0
			c-0.1-0.1-0.2-0.2-0.3-0.4c-0.1-0.2-0.1-0.5-0.1-0.8c0.1-0.3,0.2-0.6,0.4-0.8c0.2-0.2,0.5-0.4,0.9-0.6c0.2-0.1,0.5-0.2,0.9-0.3
			c0.3-0.1,0.5-0.1,0.6-0.2s0.2-0.1,0.2-0.2c0-0.1,0-0.1,0-0.2c0,0,0,0,0-0.1c0,0,0-0.1,0-0.1c0-0.1,0-0.1,0-0.2
			c0-0.1,0.1-0.1,0.1-0.1c0.1,0,0.1,0,0.2,0c0.1,0,0.1,0.1,0.1,0.2c0.1,0.2,0,0.3-0.1,0.5c-0.1,0.2-0.4,0.3-0.7,0.5
			c-0.1,0.1-0.3,0.1-0.4,0.2c0,0.1,0,0.4,0.1,0.8l0.2,1.1l0.1,0.7l0.1,0.8c0.1,0,0.3-0.1,0.3-0.1C15.4,13.7,15.5,13.6,15.6,13.6z"/>
		<path class="st4" d="M16.9,13.2l-0.4,0.2l-0.1-0.9c-0.1-0.4-0.1-0.9-0.2-1.2c0-0.1,0-0.2,0-0.2c0,0-0.1-0.1-0.1,0
			c0,0-0.1,0.1-0.1,0.1c0,0.1-0.1,0.2-0.2,0.4l-0.1-0.1c0.1-0.3,0.2-0.5,0.4-0.7c0.1-0.2,0.3-0.3,0.4-0.3c0,0,0.1,0,0.1,0
			c0,0,0,0,0.1,0.1c0,0,0,0.1,0,0.2l0.1,0.6c0.1-0.4,0.2-0.8,0.3-1.1c0.1-0.2,0.2-0.3,0.2-0.3c0.1,0,0.1,0,0.2,0
			c0.1,0,0.1,0.1,0.1,0.1c0,0.1,0,0.1,0,0.2c0,0.1-0.1,0.1-0.2,0.3c-0.1,0.1-0.2,0.2-0.3,0.3c-0.1,0.1-0.1,0.3-0.2,0.4
			c-0.1,0.2-0.1,0.3-0.1,0.5c0,0.1,0,0.4,0.1,0.8L16.9,13.2z"/>
		<path class="st4" d="M19.1,9.3l0.2-0.1l0.1,0.9c0,0.3,0.1,0.7,0.2,1.1c0,0.2,0.1,0.4,0.1,0.4s0.1,0.1,0.1,0.1c0,0,0.1-0.1,0.1-0.1
			c0.1-0.1,0.2-0.3,0.2-0.4l0.1,0.1c-0.1,0.3-0.2,0.5-0.3,0.6c-0.1,0.1-0.2,0.3-0.3,0.3c-0.1,0.1-0.1,0.1-0.2,0.1
			c-0.1,0-0.1,0-0.1,0c0,0-0.1,0-0.1-0.1c0,0,0-0.1,0-0.1l0-0.5c-0.1,0.3-0.2,0.5-0.4,0.8c-0.1,0.2-0.2,0.3-0.3,0.3
			c-0.1,0-0.2,0-0.3,0c-0.1-0.1-0.2-0.2-0.3-0.4c-0.1-0.2-0.1-0.5-0.1-0.8c0-0.3,0.1-0.6,0.2-0.9c0.1-0.3,0.2-0.5,0.4-0.7
			c0.1-0.1,0.3-0.3,0.6-0.4c0.1,0,0.1,0,0.2-0.1L19.1,9.3z M19,9.9c-0.1,0-0.2,0-0.3,0.1c-0.2,0.1-0.3,0.2-0.4,0.3s-0.1,0.4-0.2,0.7
			c0,0.3,0,0.6,0.1,0.8c0.1,0.1,0.1,0.2,0.2,0.3c0.1,0,0.1,0,0.2,0c0.1-0.1,0.3-0.2,0.4-0.4c0.1-0.2,0.1-0.5,0.1-0.8L19,9.9z"/>
		<path class="st4" d="M21.2,8.8c-0.1,0.3-0.1,0.6,0,0.8c0,0.2,0.1,0.4,0.1,0.6c0.1,0.2,0.2,0.4,0.4,0.8c0.3-0.5,0.5-1,0.5-1.3
			c0.1-0.4,0-0.7,0-0.9c0-0.1-0.1-0.1-0.2-0.2c-0.1-0.1-0.1-0.1-0.2-0.2c0-0.1,0-0.1,0-0.2c0-0.1,0.1-0.1,0.1-0.1c0.1,0,0.1,0,0.2,0
			c0.1,0,0.1,0.1,0.2,0.3c0.2,0.4,0.2,0.9,0.1,1.4c-0.2,0.6-0.5,1.2-0.9,1.7c-0.1-0.1-0.1-0.2-0.3-0.4c-0.3-0.4-0.4-0.7-0.5-0.8
			c-0.1-0.2-0.1-0.4-0.1-0.7c0-0.2,0.1-0.5,0.2-0.7c-0.3,0.2-0.6,0.3-0.7,0.4c-0.1,0.1-0.1,0.2-0.1,0.2c0,0,0,0.1,0.1,0.1
			c0,0,0.1,0.1,0.1,0.1s0,0.1,0,0.1c0,0,0,0.1-0.1,0.1c-0.1,0-0.1,0-0.2,0c-0.1,0-0.1-0.1-0.1-0.2c0-0.1-0.1-0.2,0-0.4
			c0-0.1,0.1-0.3,0.3-0.4c0.2-0.1,0.4-0.3,0.7-0.4c0.1-0.1,0.2-0.2,0.2-0.2c0,0,0.1,0,0.1,0c0,0,0.1,0,0.1,0.1
			C21.3,8.6,21.3,8.7,21.2,8.8z"/>
		<path class="st4" d="M24.7,9.1l0.2,0.1c-0.3,0.7-0.6,1.1-1,1.2c-0.1,0.1-0.3,0.1-0.4,0c-0.1-0.1-0.2-0.2-0.3-0.4
			C23,9.6,23,9.1,23.1,8.6c0.1-0.6,0.3-1,0.7-1.2c0.1-0.1,0.3-0.1,0.4,0c0.1,0,0.2,0.1,0.2,0.2c0.1,0.1,0.1,0.3,0,0.4
			c0,0.2-0.1,0.4-0.3,0.6C24,8.8,23.8,9,23.5,9.3c0,0.1,0.1,0.2,0.1,0.3c0.1,0.1,0.1,0.2,0.2,0.3c0.1,0,0.1,0,0.2,0
			c0.1,0,0.2-0.1,0.2-0.2C24.4,9.6,24.5,9.4,24.7,9.1z M23.5,9.1c0.3-0.3,0.4-0.5,0.5-0.8c0.1-0.2,0.1-0.3,0-0.4
			c0-0.1-0.1-0.1-0.2-0.2c-0.1,0-0.1,0-0.2,0c-0.1,0-0.1,0.1-0.2,0.2c-0.1,0.1-0.1,0.3-0.1,0.4C23.4,8.6,23.4,8.9,23.5,9.1z"/>
		<path class="st4" d="M26.5,8.4l0.1,0.1c-0.1,0.2-0.2,0.5-0.4,0.7c-0.2,0.2-0.3,0.4-0.4,0.4c-0.1,0-0.1,0-0.2,0
			c-0.1,0-0.1-0.1-0.1-0.2c-0.1-0.2-0.1-0.5-0.2-1.1l-0.2-1.4C25,6.4,25,6,25,5.8c0-0.3,0.1-0.6,0.3-0.8c0.2-0.2,0.4-0.4,0.6-0.5
			c0.1,0,0.2,0,0.2,0c0.1,0,0.1,0.1,0.1,0.1c0,0.1,0,0.1,0,0.2c0,0.1-0.1,0.1-0.2,0.1C26,5,25.9,5,25.8,5.1c-0.1,0-0.2,0.1-0.3,0.1
			c-0.1,0-0.1,0.1-0.2,0.1c0,0.1,0,0.2,0,0.4c0,0.2,0.1,0.5,0.1,1L25.7,8c0.1,0.7,0.2,1.1,0.2,1.1c0,0.1,0.1,0.1,0.1,0.1
			c0,0,0.1-0.1,0.2-0.2C26.3,8.8,26.4,8.6,26.5,8.4z"/>
		<path class="st4" d="M27.3,6c0.2-0.1,0.3-0.1,0.5-0.1c0.1,0,0.2,0.1,0.2,0.2c0,0.1,0,0.1,0,0.2c0,0.1-0.1,0.1-0.1,0.1
			c0,0-0.1,0-0.1,0c0,0-0.1,0-0.2-0.1c-0.2-0.1-0.3-0.1-0.4-0.1c-0.1,0-0.1,0.1-0.2,0.2c0,0.1,0,0.2,0,0.3c0,0.1,0.1,0.2,0.2,0.2
			s0.2,0.1,0.5,0.2c0.3,0.1,0.5,0.3,0.6,0.5c0.1,0.2,0.1,0.4,0,0.7s-0.3,0.4-0.6,0.5C27.4,9,27.2,9,27,8.9c-0.2,0-0.3-0.1-0.3-0.3
			c0-0.1,0-0.1,0-0.2c0-0.1,0.1-0.1,0.1-0.1c0.1,0,0.1,0,0.2,0c0.1,0,0.1,0.1,0.1,0.1c0,0,0,0,0,0.1c0,0,0,0,0,0.1
			c0,0.1,0.1,0.1,0.2,0.1c0.1,0,0.2,0,0.2,0c0.1,0,0.2-0.1,0.3-0.2c0.1-0.1,0.1-0.2,0.1-0.2c0-0.1,0-0.2,0-0.3
			c0-0.1-0.1-0.1-0.2-0.2c-0.1-0.1-0.2-0.1-0.4-0.2C27,7.4,26.8,7.3,26.7,7c-0.1-0.2-0.1-0.4,0-0.6C26.9,6.2,27,6.1,27.3,6z"/>
	</g>
	<g>
		<path class="st0" d="M12,17.1c3.7-1.7,7.5-3.3,11.2-4.9l5.7-2.3c1-0.4,2-0.6,3-0.7c1,0,2.2,0.1,2.8,0.9c-0.7-0.8-1.8-0.8-2.8-0.7
			c-1,0.1-2,0.4-2.9,0.8l-5.6,2.4C19.6,14.2,15.9,15.8,12,17.1z"/>
	</g>
	<g>
		<path class="st4" d="M11.9,16.7c3.7-1.7,7.5-3.3,11.2-4.9l5.7-2.3c1-0.4,2-0.6,3-0.7c1,0,2.2,0.1,2.8,0.9
			c-0.7-0.8-1.8-0.8-2.8-0.7c-1,0.1-2,0.4-2.9,0.8l-5.6,2.4C19.5,13.8,15.7,15.4,11.9,16.7z"/>
	</g>
</g>
</svg>
