<?xml version="1.0" encoding="utf-8"?>
<!-- Generator: Adobe Illustrator 21.0.2, SVG Export Plug-In . SVG Version: 6.00 Build 0)  -->
<svg version="1.1" id="Capa_1" xmlns="http://www.w3.org/2000/svg" xmlns:xlink="http://www.w3.org/1999/xlink" x="0px" y="0px"
	 viewBox="0 0 45 45" style="enable-background:new 0 0 45 45;" xml:space="preserve">
<style type="text/css">
	.st0{fill:#00A19A;}
	.st1{fill:#49B29C;}
	.st2{fill:url(#SVGID_1_);}
	.st3{opacity:0.81;fill:#00A19A;}
	.st4{fill:#FFFFFF;}
	.st5{font-family:'MonotypeCorsiva';}
	.st6{font-size:6.6443px;}
</style>
<g>
	<circle class="st0" cx="22.6" cy="22.5" r="20.6"/>
	<circle class="st1" cx="22.4" cy="22.5" r="19.3"/>
	
		<linearGradient id="SVGID_1_" gradientUnits="userSpaceOnUse" x1="34.5682" y1="151.412" x2="54.1411" y2="151.412" gradientTransform="matrix(0.6687 -0.7435 0.7435 0.6687 -126.3082 -38.6363)">
		<stop  offset="0" style="stop-color:#00A19A;stop-opacity:0.7"/>
		<stop  offset="1" style="stop-color:#47B29C"/>
	</linearGradient>
	<path class="st2" d="M36.8,35.3c-7.2,8-19.5,8.8-27.5,1.6S0.9,17.5,8.1,9.4"/>
	<path class="st3" d="M21.6,37.9c-0.6-1.2-1.3-2.3-1.8-3.5c-0.5-1-0.8-2.2-1.1-3.3c-0.1-0.4,0.2-1,0.3-1.5c0.5,0.3,1.3,0.4,1.4,0.8
		c0.7,1.6,1.2,3.2,1.7,4.9c0.1,0.3,0.3,0.6,0.4,0.9c0.2,0.4,0.8,0.4,1,0c3.1-7.4,6.1-14.8,9.2-22.1c0.2-0.6-0.4-1.2-1-1
		c-7.3,3-14.7,6-22,9.1c-0.6,0.2-0.5,1.1,0,1.3c2.2,0.7,4.4,1.5,6.6,2.1c0.5,0.1,1.3-0.6,1.8-1c2.3-1.9,4.6-3.9,6.9-5.8
		c0.5-0.4,1.4-0.4,2.2-0.6c-0.3,0.6-0.4,1.5-0.9,1.9c-2.5,2.3-5.2,4.4-7.7,6.6c-1.2,1.1-2.3,1.2-3.7,0.6c-1.9-0.8-4-1.3-5.8-2.2
		c-0.8-0.3-1.8-1.2-1.9-1.9c-0.1-0.8,0.1-1.7,0.7-2.4c0.3-0.5,1.5-0.8,2.1-1c6.9-2.9,13.8-5.7,20.7-8.6c0.4-0.2,0.8-0.3,1.3-0.2
		c1.5,0,2.2,0.5,2.5,1.7c0.2,0.9,0.1,1.8-0.3,2.6c-0.3,0.6-0.5,1.1-0.8,1.7C30.7,24,27.9,30.9,25,37.8
		C24.4,39.2,22.4,39.3,21.6,37.9z"/>
	<path class="st4" d="M21.2,37.3c-0.6-1.2-1.3-2.3-1.8-3.5c-0.5-1-0.8-2.2-1.1-3.3c-0.1-0.4,0.2-1,0.3-1.5c0.5,0.3,1.3,0.4,1.4,0.8
		c0.7,1.6,1.2,3.2,1.7,4.9c0.1,0.3,0.3,0.6,0.4,0.9c0.2,0.4,0.8,0.4,1,0c3.1-7.4,6.1-14.8,9.2-22.1c0.2-0.6-0.4-1.2-1-1
		c-7.3,3-14.7,6-22,9.1c-0.6,0.2-0.5,1.1,0,1.3c2.2,0.7,4.4,1.5,6.6,2.1c0.5,0.1,1.3-0.6,1.8-1c2.3-1.9,4.6-3.9,6.9-5.8
		c0.5-0.4,1.4-0.4,2.2-0.6c-0.3,0.6-0.4,1.5-0.9,1.9c-2.5,2.3-5.2,4.4-7.7,6.6c-1.2,1.1-2.3,1.2-3.7,0.6c-1.9-0.8-4-1.3-5.8-2.2
		c-0.8-0.3-1.8-1.2-1.9-1.9c-0.1-0.8,0.1-1.7,0.7-2.4c0.3-0.5,1.5-0.8,2.1-1c6.9-2.9,13.8-5.7,20.7-8.6c0.4-0.2,0.8-0.3,1.3-0.2
		c1.5,0,2.2,0.5,2.5,1.7c0.2,0.9,0.1,1.8-0.3,2.6c-0.3,0.6-0.5,1.1-0.8,1.7c-2.9,6.9-5.8,13.8-8.7,20.7C23.9,38.6,22,38.7,21.2,37.3
		z"/>
	<text transform="matrix(0.9234 -0.3838 0.3838 0.9234 7.3852 17.3845)" class="st0 st5 st6">G-Travels</text>
	<text transform="matrix(0.9234 -0.3838 0.3838 0.9234 7.223 17.251)" class="st4 st5 st6">G-Travels</text>
	<g>
		<path class="st0" d="M12,17.1c3.7-1.7,7.5-3.3,11.2-4.9l5.7-2.3c1-0.4,2-0.6,3-0.7c1,0,2.2,0.1,2.8,0.9c-0.7-0.8-1.8-0.8-2.8-0.7
			c-1,0.1-2,0.4-2.9,0.8l-5.6,2.4C19.6,14.2,15.9,15.8,12,17.1z"/>
	</g>
	<g>
		<path class="st4" d="M11.9,16.7c3.7-1.7,7.5-3.3,11.2-4.9l5.7-2.3c1-0.4,2-0.6,3-0.7c1,0,2.2,0.1,2.8,0.9
			c-0.7-0.8-1.8-0.8-2.8-0.7c-1,0.1-2,0.4-2.9,0.8l-5.6,2.4C19.5,13.8,15.7,15.4,11.9,16.7z"/>
	</g>
</g>
</svg>
