<?xml version="1.0" encoding="utf-8"?>
<!-- Generator: Adobe Illustrator 21.0.2, SVG Export Plug-In . SVG Version: 6.00 Build 0)  -->
<svg version="1.1" id="Capa_1" xmlns="http://www.w3.org/2000/svg" xmlns:xlink="http://www.w3.org/1999/xlink" x="0px" y="0px"
	 viewBox="0 0 455 455" style="enable-background:new 0 0 455 455;" xml:space="preserve">
<style type="text/css">
	.st0{fill:#49B29C;}
</style>
<path class="st0" d="M138.8,241.8l33.2-33.2h-33.2V241.8z"/>
<path class="st0" d="M318.2,243.4v-34.8H310L177.2,341.4h43.1L318.2,243.4z"/>
<path class="st0" d="M140.2,341.4h20.1L293,208.6h-43.7L138.8,319.1v21C138.8,340.8,139.4,341.4,140.2,341.4z"/>
<path class="st0" d="M138.8,302.1l93.5-93.5H189l-50.1,50.1L138.8,302.1L138.8,302.1z"/>
<path class="st0" d="M250.8,121.1c-7.8,3.1-13.2,10.3-13.8,18.7v9.9h39.3c3.7-6.8,3.1-15.1-1.7-22.8
	C264.6,117.7,255.4,119.3,250.8,121.1z"/>
<path class="st0" d="M193.8,161.7h-69V172h207.7v-10.3H193.8z"/>
<path class="st0" d="M124.8,184h207.7v12.6H124.8V184z"/>
<path class="st0" d="M318.2,303.7v-43.4l-81,81h43.4L318.2,303.7z"/>
<path class="st0" d="M318.2,340v-19.4l-20.7,20.7h19.3C317.7,341.4,318.2,340.8,318.2,340z"/>
<path class="st0" d="M225,149.7v-27.8c0-11.3-7.2-22.7-23.3-22.7c-12.8,0-23.3,11.5-23.3,25.7c0,11.5,6.7,21.6,16.3,24.8H225z"/>
</svg>
